<?xml version="1.0" encoding="UTF-8" standalone="no"?>
<!-- Created with Inkscape (http://www.inkscape.org/) -->

<svg
   xmlns:dc="http://purl.org/dc/elements/1.1/"
   xmlns:cc="http://creativecommons.org/ns#"
   xmlns:rdf="http://www.w3.org/1999/02/22-rdf-syntax-ns#"
   xmlns:svg="http://www.w3.org/2000/svg"
   xmlns="http://www.w3.org/2000/svg"
   xmlns:sodipodi="http://sodipodi.sourceforge.net/DTD/sodipodi-0.dtd"
   xmlns:inkscape="http://www.inkscape.org/namespaces/inkscape"
   width="512"
   height="512"
   viewBox="0 0 135.46666 135.46667"
   version="1.1"
   id="svg8"
   inkscape:version="0.92.4 (5da689c313, 2019-01-14)"
   sodipodi:docname="logo.svg"
   inkscape:export-filename="/home/awt/code/phonebook/public/logo64.png"
   inkscape:export-xdpi="36"
   inkscape:export-ydpi="36">
  <defs
     id="defs2">
    <filter
       inkscape:label="In and Out"
       inkscape:menu="Shadows and Glows"
       inkscape:menu-tooltip="Inner colorized shadow, outer black shadow"
       style="color-interpolation-filters:sRGB;"
       id="filter33">
      <feGaussianBlur
         result="result0"
         in="SourceAlpha"
         stdDeviation="4"
         id="feGaussianBlur27" />
      <feOffset
         dx="5"
         dy="5"
         result="result4"
         id="feOffset29" />
      <feComposite
         in="SourceGraphic"
         in2="result4"
         operator="xor"
         result="result3"
         id="feComposite31" />
    </filter>
  </defs>
  <sodipodi:namedview
     id="base"
     pagecolor="#ffffff"
     bordercolor="#666666"
     borderopacity="1.0"
     inkscape:pageopacity="0.0"
     inkscape:pageshadow="2"
     inkscape:zoom="0.35"
     inkscape:cx="-134.28571"
     inkscape:cy="548.57143"
     inkscape:document-units="mm"
     inkscape:current-layer="layer1"
     showgrid="false"
     units="px"
     inkscape:window-width="1280"
     inkscape:window-height="683"
     inkscape:window-x="0"
     inkscape:window-y="18"
     inkscape:window-maximized="0" />
  <metadata
     id="metadata5">
    <rdf:RDF>
      <cc:Work
         rdf:about="">
        <dc:format>image/svg+xml</dc:format>
        <dc:type
           rdf:resource="http://purl.org/dc/dcmitype/StillImage" />
        <dc:title></dc:title>
      </cc:Work>
    </rdf:RDF>
  </metadata>
  <g
     inkscape:label="Layer 1"
     inkscape:groupmode="layer"
     id="layer1"
     transform="translate(0,-161.53332)">
    <circle
       style="opacity:1;fill:#aa0000;fill-opacity:1;stroke:#000000;stroke-width:1.21149468;stroke-linejoin:round;stroke-miterlimit:4;stroke-dasharray:none;stroke-opacity:1;paint-order:stroke fill markers"
       id="path10"
       cx="67.73333"
       cy="229.26665"
       r="58.841038" />
    <path
       style="opacity:1;fill:#1a1a1a;fill-opacity:1;stroke:#000000;stroke-width:2.34243369;stroke-linejoin:round;stroke-miterlimit:4;stroke-dasharray:none;stroke-opacity:1;paint-order:stroke fill markers;filter:url(#filter33)"
       d="m 50.519605,182.95466 a 22.777175,22.777175 0 0 0 -20.737086,22.6756 22.777175,22.777175 0 0 0 0.0075,0.20371 44.039833,44.039833 0 0 0 -8.362565,25.70533 44.039833,44.039833 0 0 0 44.040048,44.03939 44.039833,44.039833 0 0 0 25.58142,-8.28148 22.777175,22.777175 0 0 0 0.422341,0.0207 22.777175,22.777175 0 0 0 22.567897,-19.90861 73.819213,73.819213 0 0 1 -39.448086,-18.12193 22.777175,22.777175 0 0 0 -5.897268,15.25374 22.777175,22.777175 0 0 0 2.065668,9.41032 44.039833,44.039833 0 0 1 -20.801973,-25.70793 22.777175,22.777175 0 0 0 2.602843,0.1635 22.777175,22.777175 0 0 0 15.325753,-5.96408 73.819213,73.819213 0 0 1 -17.366123,-39.48833 z"
       id="circle16"
       inkscape:connector-curvature="0" />
  </g>
</svg>
